<svg version="1.1" id="Layer_1" xmlns="http://www.w3.org/2000/svg" xmlns:xlink="http://www.w3.org/1999/xlink" viewBox="0 0 4000 4000" style="enable-background:new 0 0 4000 4000; width: 100%; height: 100%;" xml:space="preserve">
  <defs>
    <filter id="hgv-glow" x="-30%" y="-30%" width="160%" height="160%">
      <feGaussianBlur stdDeviation="50" result="blur" />
      <feMerge>
        <feMergeNode in="blur" />
        <feMergeNode in="SourceGraphic" />
      </feMerge>
    </filter>
    <linearGradient id="hgv-gradient" x1="32%" y1="97%" x2="68%" y2="3%" class="shimmer-active-element">
      
      <stop offset="50%" stop-color="#1C1C72" />
      <stop offset="75%" stop-color="#4A259C" />
      <stop offset="100%" stop-color="#7B2DBF" />
    </linearGradient>

    <!-- SVG Vector Mask (Unified clipping path mapping) -->
    <mask id="hgv-mask">
      <!-- Opaque white paths let gradient show, black blocks transparency -->
      <rect width="4000" height="4000" fill="black" />
      
      <!-- Base letter geometries in white -->
      <polygon fill="white" points="104.5,3397.1 104.5,1340.9 703.1,1108.1 703.1,3397.1 503.5,3397.1 503.5,2200 304,2200 304,3397.1" />
      <polygon fill="white" points="902.6,3197.6 902.6,3397.1 1501.1,3397.1 1501.1,797.7 902.6,1030.5 902.6,2200 1301.6,2200 1301.6,3197.6" />
      <polygon fill="white" points="1700.7,3397.1 1900.2,3397.1 1900.2,856.7 1999.9,817.8 2099.7,856.7 2099.7,3397.1 2299.2,3397.1 2299.2,720.1 1999.9,603.8 1700.7,720.1" />
      <polygon fill="white" points="2498.9,1011.8 2897.9,1167 2897.9,2000.4 2498.9,2000.4 2498.9,3397.1 3097.4,3397.1 3097.4,1030.5 2498.9,797.7" />
      <polygon fill="white" points="3296.9,1108.1 3895.5,1340.9 3895.5,3397.1 3696,3397.1 3696,2200 3496.5,2200 3496.5,3397.1 3296.9,3397.1" />

      <!-- High contrast geometric cutouts subtracted via black fill -->
      <polygon fill="black" points="304,2000.4 503.5,2000.4 503.5,1399.8 304,1477.3" />
      <polygon fill="black" points="3496.5,1399.8 3696,1477.3 3696,2000.4 3496.5,2000.4" />
      <rect x="2698.4" y="2200" fill="black" width="199.5" height="997.6" />
      <polygon fill="black" points="1102.1,1167 1301.6,1089.4 1301.6,2000.4 1102.1,2000.4" />
    </mask>
  </defs>

  <!-- Ambient Underlay Shadow Layer -->
  <rect width="4000" height="4000" fill="url(#hgv-gradient)" mask="url(#hgv-mask)" opacity="0.36" filter="url(#hgv-glow)" />

  <!-- Main High Definition Gradient Lettering -->
  <rect width="4000" height="4000" fill="url(#hgv-gradient)" mask="url(#hgv-mask)" />
</svg>