<?xml version="1.0" encoding="utf-8"?>
<!-- Generator: Adobe Illustrator 28.0.0, SVG Export Plug-In . SVG Version: 6.00 Build 0)  -->
<svg version="1.1" id="Layer_1" xmlns="http://www.w3.org/2000/svg" xmlns:xlink="http://www.w3.org/1999/xlink" x="0px" y="0px"
	 viewBox="0 0 4000 4000" style="enable-background:new 0 0 4000 4000;" xml:space="preserve">
<style type="text/css">
	.st0{fill:#000000;}
	.st1{fill:#FFFFFF;}
</style>
<polygon class="st0" points="104.5,3397.1 104.5,1340.9 703.1,1108.1 703.1,3397.1 503.5,3397.1 503.5,2200 304,2200 304,3397.1 "/>
<polygon class="st1" points="304,2000.4 503.5,2000.4 503.5,1399.8 304,1477.3 "/>
<polygon class="st0" points="902.6,3197.6 902.6,3397.1 1501.1,3397.1 1501.1,797.7 902.6,1030.5 902.6,2200 1301.6,2200 
	1301.6,3197.6 "/>
<polygon class="st0" points="1700.7,3397.1 1900.2,3397.1 1900.2,856.7 1999.9,817.8 2099.7,856.7 2099.7,3397.1 2299.2,3397.1 
	2299.2,720.1 1999.9,603.8 1700.7,720.1 "/>
<polygon class="st0" points="2498.9,1011.8 2897.9,1167 2897.9,2000.4 2498.9,2000.4 2498.9,3397.1 3097.4,3397.1 3097.4,1030.5 
	2498.9,797.7 "/>
<polygon class="st0" points="3296.9,1108.1 3895.5,1340.9 3895.5,3397.1 3696,3397.1 3696,2200 3496.5,2200 3496.5,3397.1 
	3296.9,3397.1 "/>
<polygon class="st1" points="3496.5,1399.8 3696,1477.3 3696,2000.4 3496.5,2000.4 "/>
<rect x="2698.4" y="2200" class="st1" width="199.5" height="997.6"/>
<polygon class="st1" points="1102.1,1167 1301.6,1089.4 1301.6,2000.4 1102.1,2000.4 "/>
</svg>
